<?xml version="1.0" encoding="utf-8"?>
<!-- Generator: Adobe Illustrator 27.6.1, SVG Export Plug-In . SVG Version: 6.00 Build 0)  -->
<svg version="1.1" xmlns="http://www.w3.org/2000/svg" xmlns:xlink="http://www.w3.org/1999/xlink" x="0px" y="0px"
	 viewBox="0 0 2834.65 2834.65" style="enable-background:new 0 0 2834.65 2834.65;" xml:space="preserve">
<style type="text/css">
	.st0{fill:#2D8CCA;}
	.st1{fill:#86BE41;}
</style>
<g id="Layer_1">
</g>
<g id="Layer_2">
	<g>
		<polygon class="st0" points="2277.28,1934.18 2659.27,1534.04 2772.74,1426.49 1490.12,143.87 1490.12,170.96 1490.12,509.34 
			1490.12,2690.78 1748.55,2434.25 1748.55,778.17 1883.7,918.76 1883.7,2318.97 2142.13,2047.83 2142.13,1187.59 2383.82,1438.99 
			2277.28,1545.53 		"/>
		<polygon class="st1" points="557.36,1934.18 175.37,1534.04 61.9,1426.49 1344.53,143.87 1344.53,170.96 1344.53,509.34 
			1344.53,2690.78 1086.1,2434.25 1086.1,778.17 950.95,918.76 950.95,2318.97 692.51,2047.83 692.51,1187.59 450.83,1438.99 
			557.36,1545.53 		"/>
	</g>
</g>
</svg>
