<svg xmlns="http://www.w3.org/2000/svg" viewBox="0 0 2834.65 769.8">
  <style>
    .st0{fill:#2D8CCA;}
    .st1{fill:#86BE41;}
  </style>
  <g>
    <g>
      <g>
        <path class="st1" d="M865.55,354.48l95.65-87.18h27.91v235.2h-62.09V381.76l-61.46,56.13l-61.78-55.82V502.5h-62.09V267.3h27.91L865.55,354.48z"/>
        <path class="st1" d="M1162.84,415.94v86.55h-61.15v-86.55l-85.93-148.64h71.19l45.16,78.4l45.47-78.4h71.19L1162.84,415.94z"/>
      </g>
      <g>
        <path class="st0" d="M1411.99,354.48l95.65-87.18h27.91v235.2h-62.09V381.76l-61.46,56.13l-61.78-55.82V502.5h-62.09V267.3h27.91L1411.99,354.48z"/>
        <path class="st0" d="M1695.48,267.3c64.91,0,117.6,53,117.6,117.91s-52.68,117.28-117.6,117.28c-64.91,0-117.28-52.37-117.28-117.28S1630.56,267.3,1695.48,267.3z M1695.48,328.77c-30.73,0-55.82,25.09-55.82,56.13c0,30.73,25.09,56.13,55.82,56.13c31.05,0,56.13-25.4,56.13-56.13C1751.61,353.85,1726.52,328.77,1695.48,328.77z"/>
        <path class="st0" d="M1963.92,267.3c64.91,0,117.6,53,117.6,117.91s-52.68,117.28-117.6,117.28c-64.91,0-117.28-52.37-117.28-117.28S1899,267.3,1963.92,267.3z M1963.92,328.77c-30.73,0-55.82,25.09-55.82,56.13c0,30.73,25.09,56.13,55.82,56.13c31.05,0,56.13-25.4,56.13-56.13C2020.05,353.85,1994.96,328.77,1963.92,328.77z"/>
        <path class="st0" d="M2124.48,267.3h61.78v173.1h84.67v62.09h-146.45V267.3z"/>
        <path class="st0" d="M2299.46,502.5l109.76-235.2h27.91l110.7,235.2h-61.78l-14.43-30.73h-96.27l-14.11,30.73H2299.46z M2399.5,419.71h47.98l-23.83-51.74L2399.5,419.71z"/>
        <path class="st0" d="M2640.97,267.3v83.73h74.64V267.3h61.78v235.2h-61.78v-89.69h-74.64v89.69h-61.78V267.3H2640.97z"/>
      </g>
    </g>
    <g>
      <polygon class="st0" points="580.22,506.91 670.4,412.45 697.18,387.06 394.41,84.29 394.41,90.68 394.41,170.56 394.41,685.51 455.41,624.95 455.41,234.02 487.31,267.21 487.31,597.74 548.32,533.74 548.32,330.67 605.37,390.01 580.22,415.16"/>
      <polygon class="st1" points="174.22,506.91 84.05,412.45 57.26,387.06 360.04,84.29 360.04,90.68 360.04,170.56 360.04,685.51 299.03,624.95 299.03,234.02 267.13,267.21 267.13,597.74 206.13,533.74 206.13,330.67 149.07,390.01 174.22,415.16"/>
    </g>
  </g>
</svg>